<svg width="151" height="29" viewBox="0 0 151 29" fill="none" xmlns="http://www.w3.org/2000/svg">
<path d="M14.0107 6.49512C13.1449 6.49512 12.3717 6.68066 11.6914 7.05176C11.0111 7.41048 10.4297 7.9362 9.94727 8.62891C9.46484 9.32161 9.09375 10.1689 8.83398 11.1709C8.58659 12.1605 8.46289 13.2861 8.46289 14.5479C8.46289 16.2549 8.67936 17.6898 9.1123 18.8525C9.54525 20.0153 10.2008 20.8936 11.0791 21.4873C11.9697 22.0811 13.083 22.3779 14.4189 22.3779C15.6312 22.3779 16.7939 22.2109 17.9072 21.877C19.0329 21.543 20.1647 21.141 21.3027 20.6709V26.8682C20.1029 27.4001 18.8721 27.7835 17.6104 28.0186C16.361 28.2536 15.0312 28.3711 13.6211 28.3711C10.6771 28.3711 8.26497 27.7897 6.38477 26.627C4.51693 25.4518 3.1377 23.8252 2.24707 21.7471C1.36882 19.6689 0.929688 17.2568 0.929688 14.5107C0.929688 12.4574 1.21419 10.5771 1.7832 8.87012C2.36458 7.16309 3.21191 5.6849 4.3252 4.43555C5.43848 3.17383 6.81152 2.2028 8.44434 1.52246C10.0895 0.829753 11.9697 0.483398 14.085 0.483398C15.3962 0.483398 16.7754 0.638021 18.2227 0.947266C19.6823 1.24414 21.1048 1.72656 22.4902 2.39453L20.2451 8.16504C19.2555 7.69499 18.2536 7.29915 17.2393 6.97754C16.2249 6.65592 15.1488 6.49512 14.0107 6.49512ZM32.9238 0.648438V4.5332C32.9238 6.00977 32.8887 7.25195 32.8184 8.25977C32.7598 9.25586 32.7012 10.0176 32.6426 10.5449H32.959C33.3926 9.85352 33.8848 9.30273 34.4355 8.89258C34.9863 8.48242 35.5957 8.18945 36.2637 8.01367C36.9316 7.82617 37.6582 7.73242 38.4434 7.73242C39.7559 7.73242 40.9395 7.98437 41.9941 8.48828C43.0605 8.99219 43.9102 9.7832 44.543 10.8613C45.1758 11.9277 45.4922 13.3223 45.4922 15.0449V28H38.584V17.1367C38.584 15.8125 38.3906 14.8164 38.0039 14.1484C37.6172 13.4688 37.0195 13.1289 36.2109 13.1289C35.3789 13.1289 34.7227 13.3691 34.2422 13.8496C33.7617 14.3184 33.4219 15.0098 33.2227 15.9238C33.0234 16.8262 32.9238 17.9336 32.9238 19.2461V28H26.0508V0.648438H32.9238ZM59.1328 7.73242C61.0664 7.73242 62.7363 8.07227 64.1426 8.75195C65.5488 9.41992 66.6328 10.4277 67.3945 11.7754C68.1562 13.123 68.5371 14.8105 68.5371 16.8379V19.8965H56.25C56.3086 20.9395 56.6953 21.7949 57.4102 22.4629C58.1367 23.1309 59.2031 23.4648 60.6094 23.4648C61.8516 23.4648 62.9883 23.3418 64.0195 23.0957C65.0625 22.8496 66.1348 22.4688 67.2363 21.9531V26.8926C66.2754 27.3965 65.2266 27.7656 64.0898 28C62.9531 28.2344 61.5176 28.3516 59.7832 28.3516C57.7793 28.3516 55.9863 27.9941 54.4043 27.2793C52.8223 26.5645 51.5742 25.457 50.6602 23.957C49.7578 22.457 49.3066 20.5293 49.3066 18.1738C49.3066 15.7832 49.7168 13.8203 50.5371 12.2852C51.3574 10.7383 52.5059 9.5957 53.9824 8.85742C55.459 8.10742 57.1758 7.73242 59.1328 7.73242ZM59.3789 12.4082C58.5703 12.4082 57.8906 12.666 57.3398 13.1816C56.8008 13.6855 56.4844 14.4824 56.3906 15.5723H62.2969C62.2852 14.9863 62.168 14.4531 61.9453 13.9727C61.7227 13.4922 61.3945 13.1113 60.9609 12.8301C60.5391 12.5488 60.0117 12.4082 59.3789 12.4082ZM81.4922 28.3516C79.4766 28.3516 77.7246 27.9941 76.2363 27.2793C74.748 26.5527 73.5938 25.4395 72.7734 23.9395C71.9648 22.4277 71.5605 20.4941 71.5605 18.1387C71.5605 15.7246 72.0117 13.75 72.9141 12.2148C73.8281 10.6797 75.0762 9.54883 76.6582 8.82227C78.2402 8.0957 80.0332 7.73242 82.0371 7.73242C83.2559 7.73242 84.4102 7.86719 85.5 8.13672C86.6016 8.40625 87.6211 8.77539 88.5586 9.24414L86.5371 14.3242C85.7168 13.9609 84.9492 13.6738 84.2344 13.4629C83.5312 13.2402 82.7988 13.1289 82.0371 13.1289C81.3457 13.1289 80.7363 13.3105 80.209 13.6738C79.6816 14.0371 79.2715 14.5879 78.9785 15.3262C78.6855 16.0527 78.5391 16.9785 78.5391 18.1035C78.5391 19.252 78.6855 20.1777 78.9785 20.8809C79.2832 21.584 79.6992 22.0938 80.2266 22.4102C80.7656 22.7266 81.3809 22.8848 82.0723 22.8848C83.0684 22.8848 84.0586 22.7324 85.043 22.4277C86.0391 22.1113 86.9824 21.6777 87.873 21.127V26.5938C87.0527 27.1328 86.127 27.5605 85.0957 27.877C84.0645 28.1934 82.8633 28.3516 81.4922 28.3516ZM98.7363 0.648438V11.4062C98.7363 12.2148 98.7012 13.1172 98.6309 14.1133C98.5723 15.0977 98.4785 15.9941 98.3496 16.8027H98.4902C98.7598 16.3926 99.0996 15.877 99.5098 15.2559C99.9199 14.6348 100.289 14.1191 100.617 13.709L105.082 8.08398H112.746L105.838 16.5566L113.186 28H105.328L100.969 20.8633L98.7363 22.5684V28H91.8281V0.648438H98.7363ZM113.941 21.0918V15.6074H123.873V21.0918H113.941ZM143.191 28L141.926 23.1836H133.576L132.275 28H124.646L133.031 2.19531H142.295L150.785 28H143.191ZM140.484 17.4883L139.377 13.2695C139.26 12.8125 139.09 12.1621 138.867 11.3184C138.645 10.4629 138.422 9.58398 138.199 8.68164C137.988 7.76758 137.824 7.01758 137.707 6.43164C137.602 7.01758 137.449 7.74414 137.25 8.61133C137.062 9.4668 136.863 10.3164 136.652 11.1602C136.453 12.0039 136.277 12.707 136.125 13.2695L135.018 17.4883H140.484Z" fill="#2F3542"/>
</svg>
