<svg width="54" height="60" viewBox="0 0 54 60" fill="none" xmlns="http://www.w3.org/2000/svg">
<path d="M24 38.9999H30V44.9999H24V38.9999ZM30 34.0649V35.9999H24V31.5C24 30.7043 24.316 29.9412 24.8786 29.3786C25.4413 28.816 26.2043 28.5 27 28.5C27.8522 28.4999 28.6869 28.2578 29.4069 27.8019C30.127 27.346 30.7028 26.6951 31.0673 25.9247C31.4318 25.1544 31.5701 24.2964 31.466 23.4505C31.3619 22.6046 31.0198 21.8057 30.4795 21.1467C29.9391 20.4877 29.2227 19.9957 28.4136 19.7279C27.6046 19.4601 26.7361 19.4276 25.9092 19.6341C25.0824 19.8406 24.3312 20.2777 23.7431 20.8944C23.1549 21.5112 22.754 22.2823 22.587 23.118L16.701 21.939C17.0659 20.1152 17.9085 18.4211 19.1427 17.0297C20.377 15.6384 21.9585 14.5997 23.7257 14.0199C25.4929 13.4402 27.3824 13.34 29.201 13.7298C31.0196 14.1196 32.7021 14.9853 34.0764 16.2385C35.4508 17.4916 36.4677 19.0872 37.0233 20.8622C37.5789 22.6371 37.6531 24.5278 37.2385 26.3409C36.8239 28.154 35.9353 29.8244 34.6635 31.1815C33.3917 32.5386 31.7824 33.5337 30 34.0649V34.0649ZM36 5.99999H5.99999V53.9999H47.9999V18H36V5.99999ZM0 2.976C0 1.332 1.341 0 2.997 0H38.9999L53.9999 15V56.9789C54.0027 57.3729 53.9278 57.7635 53.7796 58.1286C53.6314 58.4936 53.4127 58.8259 53.1361 59.1064C52.8595 59.3869 52.5303 59.6102 52.1674 59.7635C51.8045 59.9168 51.4149 59.9972 51.0209 59.9999H2.979C2.19113 59.9944 1.43705 59.6792 0.879652 59.1224C0.322253 58.5655 0.00628394 57.8118 0 57.0239V2.976Z" fill="#2F3542"/>
</svg>
